<?xml version="1.0" encoding="UTF-8" standalone="no"?>
<!DOCTYPE svg PUBLIC "-//W3C//DTD SVG 1.1//EN" "http://www.w3.org/Graphics/SVG/1.1/DTD/svg11.dtd">
<svg width="100%" height="100%" viewBox="0 0 600 400" version="1.1" xmlns="http://www.w3.org/2000/svg" xmlns:xlink="http://www.w3.org/1999/xlink" xml:space="preserve" xmlns:serif="http://www.serif.com/" style="fill-rule:evenodd;clip-rule:evenodd;stroke-linejoin:round;">
    <rect x="0" y="0" width="600" height="400" style="fill:white;"/>
    <rect x="50.679" y="11.811" width="537.512" height="343.984" style="fill:white;"/>
    <g id="haloes">
        <g transform="matrix(1.40911,0,0,1.40911,-153.789,108.059)">
            <circle cx="155.016" cy="143.261" r="5.323" style="fill:rgb(255,245,0);"/>
        </g>
        <g transform="matrix(1.40911,0,0,1.40911,-160.722,131.001)">
            <circle cx="155.016" cy="143.261" r="5.323" style="fill:rgb(255,245,0);"/>
        </g>
        <g transform="matrix(1.40911,0,0,1.40911,-139.503,85.2864)">
            <circle cx="155.016" cy="143.261" r="5.323" style="fill:rgb(255,245,0);"/>
        </g>
        <g transform="matrix(1.40911,0,0,1.40911,-125.328,62.2641)">
            <circle cx="155.016" cy="143.261" r="5.323" style="fill:rgb(255,245,0);"/>
        </g>
        <g transform="matrix(1.40911,0,0,1.40911,-82.7516,16.5049)">
            <circle cx="155.016" cy="143.261" r="5.323" style="fill:rgb(255,245,0);"/>
        </g>
        <g transform="matrix(1.40911,0,0,1.40911,1.82366,-29.6184)">
            <circle cx="155.016" cy="143.261" r="5.323" style="fill:rgb(255,245,0);"/>
        </g>
        <g transform="matrix(1.40911,0,0,1.40911,86.6993,-52.5495)">
            <circle cx="155.016" cy="143.261" r="5.323" style="fill:rgb(255,245,0);"/>
        </g>
        <g transform="matrix(1.40911,0,0,1.40911,171.55,-75.3946)">
            <circle cx="155.016" cy="143.261" r="5.323" style="fill:rgb(255,245,0);"/>
        </g>
        <g transform="matrix(1.40911,0,0,1.40911,256.507,-121.291)">
            <circle cx="155.016" cy="143.261" r="5.323" style="fill:rgb(255,245,0);"/>
        </g>
        <g transform="matrix(6.12323e-17,-1,1,6.12323e-17,-372.364,544.813)">
            <text x="269.248px" y="392.764px" style="font-family:'Arial-ItalicMT', 'Arial', sans-serif;font-style:italic;font-size:14px;">d(n)</text>
            <text x="298.034px" y="392.764px" style="font-family:'ArialMT', 'Arial', sans-serif;font-size:14px;">= number of divisors of</text>
            <text x="443.933px" y="392.764px" style="font-family:'Arial-ItalicMT', 'Arial', sans-serif;font-style:italic;font-size:14px;">n</text>
        </g>
        <g transform="matrix(1,0,0,1,14,0)">
            <text x="292.885px" y="383.521px" style="font-family:'Arial-ItalicMT', 'Arial', sans-serif;font-style:italic;font-size:14px;">n</text>
        </g>
    </g>
    <path d="M57.751,355.795L57.751,11.811" style="fill:none;fill-rule:nonzero;stroke:black;stroke-opacity:0.1;stroke-width:0.5px;"/>
    <path d="M121.403,355.795L121.403,11.811" style="fill:none;fill-rule:nonzero;stroke:black;stroke-opacity:0.1;stroke-width:0.5px;"/>
    <path d="M192.129,355.795L192.129,11.811" style="fill:none;fill-rule:nonzero;stroke:black;stroke-opacity:0.1;stroke-width:0.5px;"/>
    <path d="M262.853,355.795L262.853,11.811" style="fill:none;fill-rule:nonzero;stroke:black;stroke-opacity:0.1;stroke-width:0.5px;"/>
    <path d="M333.578,355.795L333.578,11.811" style="fill:none;fill-rule:nonzero;stroke:black;stroke-opacity:0.1;stroke-width:0.5px;"/>
    <path d="M404.305,355.795L404.305,11.811" style="fill:none;fill-rule:nonzero;stroke:black;stroke-opacity:0.1;stroke-width:0.5px;"/>
    <path d="M475.03,355.795L475.03,11.811" style="fill:none;fill-rule:nonzero;stroke:black;stroke-opacity:0.1;stroke-width:0.5px;"/>
    <path d="M545.755,355.795L545.755,11.811" style="fill:none;fill-rule:nonzero;stroke:black;stroke-opacity:0.1;stroke-width:0.5px;"/>
    <path d="M50.679,355.795L588.19,355.795" style="fill:none;fill-rule:nonzero;stroke:black;stroke-width:1px;"/>
    <path d="M57.751,355.795L57.751,351.07" style="fill:none;fill-rule:nonzero;stroke:black;stroke-width:1px;"/>
    <path d="M121.403,355.795L121.403,351.07" style="fill:none;fill-rule:nonzero;stroke:black;stroke-width:1px;"/>
    <path d="M192.129,355.795L192.129,351.07" style="fill:none;fill-rule:nonzero;stroke:black;stroke-width:1px;"/>
    <path d="M262.853,355.795L262.853,351.07" style="fill:none;fill-rule:nonzero;stroke:black;stroke-width:1px;"/>
    <path d="M333.578,355.795L333.578,351.07" style="fill:none;fill-rule:nonzero;stroke:black;stroke-width:1px;"/>
    <path d="M404.305,355.795L404.305,351.07" style="fill:none;fill-rule:nonzero;stroke:black;stroke-width:1px;"/>
    <path d="M475.03,355.795L475.03,351.07" style="fill:none;fill-rule:nonzero;stroke:black;stroke-width:1px;"/>
    <path d="M545.755,355.795L545.755,351.07" style="fill:none;fill-rule:nonzero;stroke:black;stroke-width:1px;"/>
    <path d="M55.347,370.41L57.256,370.41L57.256,363.82L55.179,364.238L55.179,363.173L57.245,362.755L58.414,362.755L58.414,370.41L60.323,370.41L60.323,371.395L55.347,371.395L55.347,370.41Z"/>
    <path d="M115.076,370.41L116.985,370.41L116.985,363.82L114.908,364.238L114.908,363.173L116.974,362.755L118.143,362.755L118.143,370.41L120.052,370.41L120.052,371.395L115.076,371.395L115.076,370.41Z"/>
    <path d="M124.913,363.525C124.311,363.525 123.858,363.822 123.553,364.415C123.252,365.005 123.102,365.894 123.102,367.083C123.102,368.268 123.252,369.158 123.553,369.753C123.858,370.342 124.311,370.638 124.913,370.638C125.519,370.638 125.972,370.342 126.273,369.753C126.578,369.158 126.731,368.268 126.731,367.083C126.731,365.894 126.578,365.005 126.273,364.415C125.972,363.822 125.519,363.525 124.913,363.525M124.913,362.598C125.882,362.598 126.62,362.982 127.13,363.75C127.643,364.513 127.9,365.624 127.9,367.083C127.9,368.537 127.643,369.649 127.13,370.418C126.62,371.181 125.882,371.563 124.913,371.563C123.945,371.563 123.204,371.181 122.691,370.418C122.182,369.649 121.927,368.537 121.927,367.083C121.927,365.624 122.182,364.513 122.691,363.75C123.204,362.982 123.945,362.598 124.913,362.598Z"/>
    <path d="M186.822,370.41L190.902,370.41L190.902,371.395L185.416,371.395L185.416,370.41C185.859,369.952 186.463,369.337 187.227,368.565C187.995,367.79 188.477,367.291 188.674,367.068C189.048,366.646 189.308,366.291 189.455,366.003C189.606,365.709 189.681,365.422 189.681,365.14C189.681,364.68 189.519,364.306 189.195,364.018C188.874,363.727 188.456,363.583 187.939,363.583C187.572,363.583 187.185,363.646 186.776,363.773C186.371,363.901 185.937,364.094 185.474,364.353L185.474,363.173C185.944,362.983 186.384,362.839 186.793,362.743C187.202,362.646 187.576,362.598 187.916,362.598C188.811,362.598 189.524,362.822 190.057,363.27C190.589,363.718 190.856,364.317 190.856,365.065C190.856,365.42 190.788,365.758 190.653,366.078C190.522,366.393 190.28,366.767 189.93,367.2C189.833,367.312 189.526,367.636 189.009,368.173C188.492,368.704 187.763,369.45 186.822,370.41Z"/>
    <path d="M195.856,363.525C195.254,363.525 194.8,363.822 194.496,364.415C194.195,365.005 194.044,365.894 194.044,367.083C194.044,368.268 194.195,369.158 194.496,369.753C194.8,370.342 195.254,370.638 195.856,370.638C196.461,370.638 196.914,370.342 197.215,369.753C197.52,369.158 197.673,368.268 197.673,367.083C197.673,365.894 197.52,365.005 197.215,364.415C196.914,363.822 196.461,363.525 195.856,363.525M195.856,362.598C196.824,362.598 197.563,362.982 198.072,363.75C198.585,364.513 198.842,365.624 198.842,367.083C198.842,368.537 198.585,369.649 198.072,370.418C197.563,371.181 196.824,371.563 195.856,371.563C194.887,371.563 194.146,371.181 193.633,370.418C193.124,369.649 192.869,368.537 192.869,367.083C192.869,365.624 193.124,364.513 193.633,363.75C194.146,362.982 194.887,362.598 195.856,362.598Z"/>
    <path d="M260.065,366.738C260.623,366.856 261.059,367.104 261.373,367.483C261.689,367.861 261.848,368.328 261.848,368.883C261.848,369.736 261.554,370.396 260.967,370.863C260.381,371.329 259.547,371.563 258.467,371.563C258.104,371.563 257.73,371.526 257.345,371.453C256.963,371.383 256.568,371.277 256.158,371.135L256.158,370.005C256.483,370.195 256.837,370.338 257.223,370.435C257.609,370.532 258.012,370.58 258.433,370.58C259.166,370.58 259.723,370.435 260.105,370.145C260.49,369.855 260.683,369.434 260.683,368.883C260.683,368.374 260.503,367.978 260.145,367.693C259.79,367.402 259.294,367.258 258.658,367.258L257.65,367.258L257.65,366.298L258.705,366.298C259.28,366.298 259.72,366.183 260.025,365.955C260.328,365.723 260.48,365.392 260.48,364.96C260.48,364.517 260.323,364.178 260.008,363.943C259.694,363.703 259.244,363.583 258.658,363.583C258.338,363.583 257.994,363.618 257.628,363.688C257.261,363.756 256.858,363.863 256.418,364.01L256.418,362.97C256.863,362.847 257.277,362.754 257.663,362.693C258.053,362.629 258.419,362.598 258.762,362.598C259.649,362.598 260.351,362.801 260.868,363.208C261.386,363.608 261.645,364.151 261.645,364.837C261.645,365.316 261.508,365.721 261.233,366.053C260.959,366.381 260.57,366.609 260.065,366.738Z"/>
    <path d="M266.563,363.525C265.961,363.525 265.508,363.822 265.203,364.415C264.902,365.005 264.753,365.894 264.753,367.083C264.753,368.268 264.902,369.158 265.203,369.753C265.508,370.342 265.961,370.638 266.563,370.638C267.169,370.638 267.623,370.342 267.923,369.753C268.228,369.158 268.38,368.268 268.38,367.083C268.38,365.894 268.228,365.005 267.923,364.415C267.623,363.822 267.169,363.525 266.563,363.525M266.563,362.598C267.531,362.598 268.27,362.982 268.78,363.75C269.293,364.513 269.55,365.624 269.55,367.083C269.55,368.537 269.293,369.649 268.78,370.418C268.27,371.181 267.531,371.563 266.563,371.563C265.594,371.563 264.853,371.181 264.34,370.418C263.832,369.649 263.578,368.537 263.578,367.083C263.578,365.624 263.832,364.513 264.34,363.75C264.853,362.982 265.594,362.598 266.563,362.598Z"/>
    <path d="M330.623,363.773L327.67,368.385L330.623,368.385L330.623,363.773M330.315,362.755L331.785,362.755L331.785,368.385L333.018,368.385L333.018,369.358L331.785,369.358L331.785,371.395L330.623,371.395L330.623,369.358L326.72,369.358L326.72,368.23L330.315,362.755Z"/>
    <path d="M337.45,363.525C336.848,363.525 336.395,363.822 336.09,364.415C335.79,365.005 335.64,365.894 335.64,367.083C335.64,368.268 335.79,369.158 336.09,369.753C336.395,370.342 336.848,370.638 337.45,370.638C338.057,370.638 338.51,370.342 338.81,369.753C339.115,369.158 339.268,368.268 339.268,367.083C339.268,365.894 339.115,365.005 338.81,364.415C338.51,363.822 338.057,363.525 337.45,363.525M337.45,362.598C338.418,362.598 339.157,362.982 339.668,363.75C340.181,364.513 340.438,365.624 340.438,367.083C340.438,368.537 340.181,369.649 339.668,370.418C339.157,371.181 338.418,371.563 337.45,371.563C336.482,371.563 335.741,371.181 335.228,370.418C334.719,369.649 334.465,368.537 334.465,367.083C334.465,365.624 334.719,364.513 335.228,363.75C335.741,362.982 336.482,362.598 337.45,362.598Z"/>
    <path d="M397.978,362.755L402.568,362.755L402.568,363.74L399.05,363.74L399.05,365.858C399.22,365.799 399.389,365.757 399.558,365.73C399.728,365.698 399.898,365.683 400.068,365.683C401.032,365.683 401.797,365.947 402.36,366.475C402.923,367.005 403.205,367.721 403.205,368.623C403.205,369.553 402.915,370.276 402.335,370.793C401.757,371.306 400.941,371.563 399.888,371.563C399.526,371.563 399.156,371.532 398.777,371.47C398.402,371.408 398.015,371.316 397.615,371.193L397.615,370.018C397.962,370.206 398.32,370.347 398.69,370.44C399.06,370.533 399.452,370.58 399.865,370.58C400.533,370.58 401.062,370.404 401.45,370.053C401.84,369.701 402.035,369.224 402.035,368.623C402.035,368.021 401.84,367.544 401.45,367.193C401.062,366.843 400.533,366.668 399.865,366.668C399.553,366.668 399.241,366.702 398.928,366.77C398.619,366.84 398.303,366.948 397.978,367.095L397.978,362.755Z"/>
    <path d="M408.008,363.525C407.406,363.525 406.953,363.822 406.648,364.415C406.346,365.005 406.195,365.894 406.195,367.083C406.195,368.268 406.346,369.158 406.648,369.753C406.953,370.342 407.406,370.638 408.008,370.638C408.613,370.638 409.066,370.342 409.368,369.753C409.673,369.158 409.825,368.268 409.825,367.083C409.825,365.894 409.673,365.005 409.368,364.415C409.066,363.822 408.613,363.525 408.008,363.525M408.008,362.598C408.976,362.598 409.715,362.982 410.225,363.75C410.737,364.513 410.993,365.624 410.993,367.083C410.993,368.537 410.737,369.649 410.225,370.418C409.715,371.181 408.976,371.563 408.008,371.563C407.039,371.563 406.298,371.181 405.785,370.418C405.277,369.649 405.023,368.537 405.023,367.083C405.023,365.624 405.277,364.513 405.785,363.75C406.298,362.982 407.039,362.598 408.008,362.598Z"/>
    <path d="M471.38,366.61C470.855,366.61 470.438,366.789 470.13,367.148C469.825,367.506 469.673,367.998 469.673,368.623C469.673,369.244 469.825,369.736 470.13,370.098C470.438,370.458 470.855,370.638 471.38,370.638C471.905,370.638 472.32,370.458 472.625,370.098C472.933,369.736 473.087,369.244 473.087,368.623C473.087,367.998 472.933,367.506 472.625,367.148C472.32,366.789 471.905,366.61 471.38,366.61M473.7,362.945L473.7,364.01C473.407,363.872 473.11,363.766 472.81,363.693C472.513,363.619 472.218,363.583 471.925,363.583C471.153,363.583 470.563,363.842 470.152,364.363C469.748,364.884 469.517,365.672 469.46,366.725C469.687,366.39 469.972,366.133 470.315,365.955C470.658,365.773 471.037,365.683 471.45,365.683C472.318,365.683 473.003,365.947 473.505,366.475C474.01,367 474.263,367.716 474.263,368.623C474.263,369.511 474,370.222 473.475,370.758C472.95,371.294 472.252,371.563 471.38,371.563C470.382,371.563 469.618,371.181 469.087,370.418C468.559,369.649 468.295,368.537 468.295,367.083C468.295,365.718 468.619,364.63 469.268,363.82C469.916,363.005 470.786,362.598 471.878,362.598C472.171,362.598 472.466,362.627 472.763,362.685C473.064,362.743 473.377,362.83 473.7,362.945Z"/>
    <path d="M478.775,363.525C478.173,363.525 477.72,363.822 477.415,364.415C477.115,365.005 476.965,365.894 476.965,367.083C476.965,368.268 477.115,369.158 477.415,369.753C477.72,370.342 478.173,370.638 478.775,370.638C479.382,370.638 479.835,370.342 480.135,369.753C480.44,369.158 480.592,368.268 480.592,367.083C480.592,365.894 480.44,365.005 480.135,364.415C479.835,363.822 479.382,363.525 478.775,363.525M478.775,362.598C479.743,362.598 480.483,362.982 480.993,363.75C481.506,364.513 481.763,365.624 481.763,367.083C481.763,368.537 481.506,369.649 480.993,370.418C480.483,371.181 479.743,371.563 478.775,371.563C477.807,371.563 477.066,371.181 476.553,370.418C476.044,369.649 475.79,368.537 475.79,367.083C475.79,365.624 476.044,364.513 476.553,363.75C477.066,362.982 477.807,362.598 478.775,362.598Z"/>
    <path d="M539.093,362.755L544.648,362.755L544.648,363.253L541.513,371.395L540.29,371.395L543.242,363.74L539.093,363.74L539.093,362.755Z"/>
    <path d="M549.428,363.525C548.826,363.525 548.372,363.822 548.068,364.415C547.767,365.005 547.617,365.894 547.617,367.083C547.617,368.268 547.767,369.158 548.068,369.753C548.372,370.342 548.826,370.638 549.428,370.638C550.034,370.638 550.488,370.342 550.788,369.753C551.093,369.158 551.245,368.268 551.245,367.083C551.245,365.894 551.093,365.005 550.788,364.415C550.488,363.822 550.034,363.525 549.428,363.525M549.428,362.598C550.396,362.598 551.135,362.982 551.645,363.75C552.158,364.513 552.415,365.624 552.415,367.083C552.415,368.537 552.158,369.649 551.645,370.418C551.135,371.181 550.396,371.563 549.428,371.563C548.459,371.563 547.719,371.181 547.208,370.418C546.698,369.649 546.443,368.537 546.443,367.083C546.443,365.624 546.698,364.513 547.208,363.75C547.719,362.982 548.459,362.598 549.428,362.598Z"/>
    <path d="M50.679,332.863L588.19,332.863" style="fill:none;fill-rule:nonzero;stroke:black;stroke-opacity:0.1;stroke-width:0.5px;"/>
    <path d="M50.679,309.93L588.19,309.93" style="fill:none;fill-rule:nonzero;stroke:black;stroke-opacity:0.1;stroke-width:0.5px;"/>
    <path d="M50.679,286.998L588.19,286.998" style="fill:none;fill-rule:nonzero;stroke:black;stroke-opacity:0.1;stroke-width:0.5px;"/>
    <path d="M50.679,264.065L588.19,264.065" style="fill:none;fill-rule:nonzero;stroke:black;stroke-opacity:0.1;stroke-width:0.5px;"/>
    <path d="M50.679,241.134L588.19,241.134" style="fill:none;fill-rule:nonzero;stroke:black;stroke-opacity:0.1;stroke-width:0.5px;"/>
    <path d="M50.679,218.202L588.19,218.202" style="fill:none;fill-rule:nonzero;stroke:black;stroke-opacity:0.1;stroke-width:0.5px;"/>
    <path d="M50.679,195.269L588.19,195.269" style="fill:none;fill-rule:nonzero;stroke:black;stroke-opacity:0.1;stroke-width:0.5px;"/>
    <path d="M50.679,172.337L588.19,172.337" style="fill:none;fill-rule:nonzero;stroke:black;stroke-opacity:0.1;stroke-width:0.5px;"/>
    <path d="M50.679,149.405L588.19,149.405" style="fill:none;fill-rule:nonzero;stroke:black;stroke-opacity:0.1;stroke-width:0.5px;"/>
    <path d="M50.679,126.472L588.19,126.472" style="fill:none;fill-rule:nonzero;stroke:black;stroke-opacity:0.1;stroke-width:0.5px;"/>
    <path d="M50.679,103.54L588.19,103.54" style="fill:none;fill-rule:nonzero;stroke:black;stroke-opacity:0.1;stroke-width:0.5px;"/>
    <path d="M50.679,80.608L588.19,80.608" style="fill:none;fill-rule:nonzero;stroke:black;stroke-opacity:0.1;stroke-width:0.5px;"/>
    <path d="M50.679,57.676L588.19,57.676" style="fill:none;fill-rule:nonzero;stroke:black;stroke-opacity:0.1;stroke-width:0.5px;"/>
    <path d="M50.679,34.743L588.19,34.743" style="fill:none;fill-rule:nonzero;stroke:black;stroke-opacity:0.1;stroke-width:0.5px;"/>
    <path d="M50.679,11.811L588.19,11.811" style="fill:none;fill-rule:nonzero;stroke:black;stroke-opacity:0.1;stroke-width:0.5px;"/>
    <path d="M50.679,355.795L50.679,11.811" style="fill:none;fill-rule:nonzero;stroke:black;stroke-width:1px;"/>
    <path d="M50.679,332.863L55.403,332.863" style="fill:none;fill-rule:nonzero;stroke:black;stroke-width:1px;"/>
    <path d="M50.679,309.93L55.403,309.93" style="fill:none;fill-rule:nonzero;stroke:black;stroke-width:1px;"/>
    <path d="M50.679,286.998L55.403,286.998" style="fill:none;fill-rule:nonzero;stroke:black;stroke-width:1px;"/>
    <path d="M50.679,264.065L55.403,264.065" style="fill:none;fill-rule:nonzero;stroke:black;stroke-width:1px;"/>
    <path d="M50.679,241.134L55.403,241.134" style="fill:none;fill-rule:nonzero;stroke:black;stroke-width:1px;"/>
    <path d="M50.679,218.202L55.403,218.202" style="fill:none;fill-rule:nonzero;stroke:black;stroke-width:1px;"/>
    <path d="M50.679,195.269L55.403,195.269" style="fill:none;fill-rule:nonzero;stroke:black;stroke-width:1px;"/>
    <path d="M50.679,172.337L55.403,172.337" style="fill:none;fill-rule:nonzero;stroke:black;stroke-width:1px;"/>
    <path d="M50.679,149.405L55.403,149.405" style="fill:none;fill-rule:nonzero;stroke:black;stroke-width:1px;"/>
    <path d="M50.679,126.472L55.403,126.472" style="fill:none;fill-rule:nonzero;stroke:black;stroke-width:1px;"/>
    <path d="M50.679,103.54L55.403,103.54" style="fill:none;fill-rule:nonzero;stroke:black;stroke-width:1px;"/>
    <path d="M50.679,80.608L55.403,80.608" style="fill:none;fill-rule:nonzero;stroke:black;stroke-width:1px;"/>
    <path d="M50.679,57.676L55.403,57.676" style="fill:none;fill-rule:nonzero;stroke:black;stroke-width:1px;"/>
    <path d="M50.679,34.743L55.403,34.743" style="fill:none;fill-rule:nonzero;stroke:black;stroke-width:1px;"/>
    <path d="M50.679,11.811L55.403,11.811" style="fill:none;fill-rule:nonzero;stroke:black;stroke-width:1px;"/>
    <path d="M36.702,336.2L38.611,336.2L38.611,329.608L36.534,330.025L36.534,328.96L38.6,328.543L39.769,328.543L39.769,336.2L41.679,336.2L41.679,337.183L36.702,337.183L36.702,336.2Z"/>
    <path d="M37.599,313.268L41.679,313.268L41.679,314.25L36.192,314.25L36.192,313.268C36.636,312.808 37.24,312.192 38.004,311.42C38.771,310.645 39.254,310.146 39.451,309.923C39.825,309.501 40.085,309.146 40.232,308.858C40.382,308.564 40.457,308.277 40.457,307.995C40.457,307.535 40.295,307.161 39.971,306.873C39.651,306.583 39.233,306.438 38.716,306.438C38.349,306.438 37.961,306.502 37.552,306.63C37.147,306.757 36.713,306.949 36.25,307.208L36.25,306.027C36.721,305.837 37.161,305.695 37.57,305.6C37.978,305.503 38.353,305.455 38.692,305.455C39.587,305.455 40.301,305.678 40.834,306.125C41.366,306.573 41.632,307.172 41.632,307.92C41.632,308.275 41.564,308.613 41.43,308.933C41.298,309.249 41.057,309.623 40.706,310.055C40.61,310.167 40.303,310.491 39.786,311.027C39.269,311.559 38.54,312.306 37.599,313.268Z"/>
    <path d="M39.896,286.66C40.455,286.78 40.891,287.028 41.204,287.405C41.52,287.783 41.679,288.251 41.679,288.808C41.679,289.659 41.385,290.318 40.799,290.785C40.212,291.252 39.379,291.485 38.299,291.485C37.936,291.485 37.562,291.448 37.176,291.375C36.794,291.307 36.399,291.201 35.99,291.058L35.99,289.93C36.314,290.118 36.669,290.261 37.055,290.358C37.44,290.454 37.844,290.503 38.264,290.503C38.997,290.503 39.555,290.358 39.937,290.068C40.322,289.779 40.515,289.359 40.515,288.808C40.515,288.298 40.336,287.9 39.977,287.615C39.622,287.325 39.126,287.18 38.49,287.18L37.483,287.18L37.483,286.22L38.536,286.22C39.111,286.22 39.551,286.106 39.856,285.878C40.16,285.646 40.313,285.314 40.313,284.883C40.313,284.439 40.155,284.1 39.838,283.865C39.526,283.625 39.076,283.505 38.49,283.505C38.17,283.505 37.826,283.54 37.46,283.61C37.093,283.68 36.69,283.788 36.25,283.935L36.25,282.893C36.694,282.769 37.109,282.677 37.495,282.615C37.884,282.553 38.251,282.523 38.594,282.523C39.481,282.523 40.183,282.725 40.701,283.13C41.217,283.532 41.476,284.076 41.476,284.763C41.476,285.241 41.339,285.646 41.065,285.978C40.791,286.304 40.401,286.532 39.896,286.66Z"/>
    <path d="M39.283,260.765L36.331,265.378L39.283,265.378L39.283,260.765M38.976,259.745L40.446,259.745L40.446,265.378L41.679,265.378L41.679,266.35L40.446,266.35L40.446,268.385L39.283,268.385L39.283,266.35L35.382,266.35L35.382,265.22L38.976,259.745Z"/>
    <path d="M36.453,236.814L41.042,236.814L41.042,237.798L37.523,237.798L37.523,239.916C37.693,239.858 37.863,239.815 38.033,239.788C38.202,239.757 38.372,239.742 38.542,239.742C39.506,239.742 40.27,240.006 40.834,240.535C41.397,241.063 41.679,241.779 41.679,242.682C41.679,243.611 41.389,244.335 40.81,244.852C40.232,245.365 39.416,245.622 38.362,245.622C38,245.622 37.629,245.591 37.251,245.529C36.877,245.467 36.489,245.375 36.088,245.251L36.088,244.076C36.435,244.265 36.794,244.406 37.164,244.499C37.535,244.591 37.926,244.638 38.339,244.638C39.007,244.638 39.535,244.462 39.925,244.111C40.315,243.76 40.51,243.284 40.51,242.682C40.51,242.08 40.315,241.603 39.925,241.252C39.535,240.901 39.007,240.726 38.339,240.726C38.027,240.726 37.714,240.76 37.402,240.83C37.093,240.899 36.777,241.007 36.453,241.154L36.453,236.814Z"/>
    <path d="M38.797,217.736C38.272,217.736 37.855,217.915 37.547,218.274C37.242,218.633 37.089,219.125 37.089,219.75C37.089,220.371 37.242,220.862 37.547,221.225C37.855,221.584 38.272,221.763 38.797,221.763C39.321,221.763 39.736,221.584 40.041,221.225C40.349,220.862 40.504,220.371 40.504,219.75C40.504,219.125 40.349,218.633 40.041,218.274C39.736,217.915 39.321,217.736 38.797,217.736M41.117,214.072L41.117,215.137C40.824,214.998 40.527,214.892 40.226,214.819C39.929,214.746 39.634,214.709 39.341,214.709C38.569,214.709 37.978,214.969 37.57,215.49C37.165,216.011 36.933,216.798 36.875,217.851C37.103,217.516 37.388,217.259 37.732,217.082C38.075,216.9 38.453,216.81 38.866,216.81C39.734,216.81 40.419,217.074 40.92,217.603C41.426,218.127 41.679,218.843 41.679,219.75C41.679,220.637 41.416,221.349 40.891,221.885C40.367,222.421 39.668,222.689 38.797,222.689C37.797,222.689 37.033,222.307 36.505,221.544C35.976,220.776 35.712,219.665 35.712,218.21C35.712,216.844 36.036,215.756 36.684,214.946C37.332,214.132 38.202,213.725 39.294,213.725C39.587,213.725 39.883,213.754 40.18,213.812C40.481,213.87 40.793,213.957 41.117,214.072Z"/>
    <path d="M36.123,190.949L41.679,190.949L41.679,191.447L38.542,199.589L37.321,199.589L40.272,191.933L36.123,191.933L36.123,190.949Z"/>
    <path d="M38.716,172.554C38.16,172.554 37.722,172.702 37.402,173C37.085,173.297 36.927,173.705 36.927,174.226C36.927,174.747 37.085,175.156 37.402,175.453C37.722,175.75 38.16,175.899 38.716,175.899C39.271,175.899 39.709,175.75 40.029,175.453C40.349,175.152 40.51,174.743 40.51,174.226C40.51,173.705 40.349,173.297 40.029,173C39.713,172.702 39.275,172.554 38.716,172.554M37.547,172.056C37.045,171.933 36.653,171.699 36.372,171.356C36.094,171.013 35.955,170.594 35.955,170.1C35.955,169.41 36.2,168.864 36.69,168.463C37.184,168.061 37.859,167.861 38.716,167.861C39.576,167.861 40.251,168.061 40.741,168.463C41.231,168.864 41.476,169.41 41.476,170.1C41.476,170.594 41.335,171.013 41.054,171.356C40.776,171.699 40.388,171.933 39.89,172.056C40.453,172.187 40.891,172.444 41.204,172.826C41.52,173.208 41.679,173.675 41.679,174.226C41.679,175.063 41.422,175.706 40.909,176.154C40.399,176.601 39.668,176.825 38.716,176.825C37.763,176.825 37.03,176.601 36.517,176.154C36.007,175.706 35.753,175.063 35.753,174.226C35.753,173.675 35.911,173.208 36.227,172.826C36.543,172.444 36.983,172.187 37.547,172.056M37.118,170.21C37.118,170.658 37.257,171.007 37.535,171.258C37.817,171.508 38.21,171.634 38.716,171.634C39.217,171.634 39.609,171.508 39.89,171.258C40.176,171.007 40.319,170.658 40.319,170.21C40.319,169.763 40.176,169.413 39.89,169.163C39.609,168.912 39.217,168.787 38.716,168.787C38.21,168.787 37.817,168.912 37.535,169.163C37.257,169.413 37.118,169.763 37.118,170.21Z"/>
    <path d="M36.273,153.545L36.273,152.481C36.567,152.619 36.864,152.725 37.164,152.799C37.466,152.872 37.761,152.909 38.05,152.909C38.822,152.909 39.41,152.65 39.815,152.133C40.224,151.612 40.457,150.823 40.515,149.766C40.291,150.098 40.008,150.353 39.664,150.53C39.321,150.708 38.941,150.796 38.525,150.796C37.66,150.796 36.976,150.536 36.47,150.015C35.969,149.49 35.718,148.775 35.718,147.868C35.718,146.981 35.98,146.269 36.505,145.733C37.029,145.196 37.728,144.928 38.6,144.928C39.599,144.928 40.361,145.312 40.886,146.08C41.414,146.844 41.679,147.955 41.679,149.413C41.679,150.775 41.354,151.863 40.706,152.677C40.062,153.487 39.194,153.893 38.102,153.893C37.809,153.893 37.512,153.864 37.211,153.806C36.91,153.748 36.597,153.661 36.273,153.545M38.6,149.882C39.124,149.882 39.539,149.703 39.844,149.344C40.153,148.985 40.307,148.493 40.307,147.868C40.307,147.247 40.153,146.757 39.844,146.398C39.539,146.036 39.124,145.854 38.6,145.854C38.075,145.854 37.658,146.036 37.35,146.398C37.045,146.757 36.893,147.247 36.893,147.868C36.893,148.493 37.045,148.985 37.35,149.344C37.658,149.703 38.075,149.882 38.6,149.882Z"/>
    <path d="M28.855,129.809L30.764,129.809L30.764,123.217L28.686,123.634L28.686,122.569L30.753,122.152L31.922,122.152L31.922,129.809L33.831,129.809L33.831,130.792L28.855,130.792L28.855,129.809Z"/>
    <path d="M38.692,122.922C38.09,122.922 37.637,123.219 37.332,123.813C37.031,124.403 36.881,125.293 36.881,126.481C36.881,127.665 37.031,128.555 37.332,129.149C37.637,129.739 38.09,130.034 38.692,130.034C39.298,130.034 39.751,129.739 40.052,129.149C40.357,128.555 40.51,127.665 40.51,126.481C40.51,125.293 40.357,124.403 40.052,123.813C39.751,123.219 39.298,122.922 38.692,122.922M38.692,121.996C39.661,121.996 40.399,122.38 40.909,123.148C41.422,123.912 41.679,125.023 41.679,126.481C41.679,127.935 41.422,129.047 40.909,129.814C40.399,130.578 39.661,130.96 38.692,130.96C37.724,130.96 36.983,130.578 36.47,129.814C35.961,129.047 35.706,127.935 35.706,126.481C35.706,125.023 35.961,123.912 36.47,123.148C36.983,122.38 37.724,121.996 38.692,121.996Z"/>
    <path d="M29.161,106.876L31.071,106.876L31.071,100.285L28.993,100.702L28.993,99.637L31.059,99.22L32.228,99.22L32.228,106.876L34.138,106.876L34.138,107.86L29.161,107.86L29.161,106.876Z"/>
    <path d="M36.702,106.876L38.611,106.876L38.611,100.285L36.534,100.702L36.534,99.637L38.6,99.22L39.769,99.22L39.769,106.876L41.679,106.876L41.679,107.86L36.702,107.86L36.702,106.876Z"/>
    <path d="M29.254,83.944L31.164,83.944L31.164,77.353L29.086,77.769L29.086,76.705L31.152,76.288L32.321,76.288L32.321,83.944L34.231,83.944L34.231,84.928L29.254,84.928L29.254,83.944Z"/>
    <path d="M37.599,83.944L41.679,83.944L41.679,84.928L36.192,84.928L36.192,83.944C36.636,83.485 37.24,82.87 38.004,82.098C38.771,81.322 39.254,80.823 39.451,80.599C39.825,80.179 40.085,79.824 40.232,79.534C40.382,79.241 40.457,78.954 40.457,78.672C40.457,78.213 40.295,77.839 39.971,77.55C39.651,77.26 39.233,77.115 38.716,77.115C38.349,77.115 37.961,77.179 37.552,77.306C37.147,77.434 36.713,77.626 36.25,77.885L36.25,76.705C36.721,76.516 37.161,76.373 37.57,76.276C37.978,76.18 38.353,76.132 38.692,76.132C39.587,76.132 40.301,76.355 40.834,76.803C41.366,77.25 41.632,77.848 41.632,78.597C41.632,78.952 41.564,79.289 41.43,79.61C41.298,79.926 41.057,80.3 40.706,80.732C40.61,80.844 40.303,81.168 39.786,81.705C39.269,82.237 38.54,82.983 37.599,83.944Z"/>
    <path d="M29.017,61.012L30.926,61.012L30.926,54.42L28.849,54.837L28.849,53.772L30.915,53.356L32.084,53.356L32.084,61.012L33.993,61.012L33.993,61.996L29.017,61.996L29.017,61.012Z"/>
    <path d="M39.896,57.337C40.455,57.457 40.891,57.706 41.204,58.084C41.52,58.462 41.679,58.929 41.679,59.484C41.679,60.337 41.385,60.996 40.799,61.463C40.212,61.93 39.379,62.163 38.299,62.163C37.936,62.163 37.562,62.127 37.176,62.054C36.794,61.984 36.399,61.878 35.99,61.735L35.99,60.607C36.314,60.796 36.669,60.939 37.055,61.035C37.44,61.131 37.844,61.179 38.264,61.179C38.997,61.179 39.555,61.035 39.937,60.746C40.322,60.456 40.515,60.036 40.515,59.484C40.515,58.975 40.336,58.577 39.977,58.292C39.622,58.002 39.126,57.858 38.49,57.858L37.483,57.858L37.483,56.897L38.536,56.897C39.111,56.897 39.551,56.783 39.856,56.556C40.16,56.324 40.313,55.993 40.313,55.561C40.313,55.117 40.155,54.777 39.838,54.542C39.526,54.303 39.076,54.183 38.49,54.183C38.17,54.183 37.826,54.218 37.46,54.287C37.093,54.357 36.69,54.465 36.25,54.611L36.25,53.57C36.694,53.446 37.109,53.354 37.495,53.292C37.884,53.23 38.251,53.199 38.594,53.199C39.481,53.199 40.183,53.402 40.701,53.807C41.217,54.208 41.476,54.752 41.476,55.439C41.476,55.917 41.339,56.322 41.065,56.654C40.791,56.982 40.401,57.21 39.896,57.337Z"/>
    <path d="M28.733,38.08L30.642,38.08L30.642,31.488L28.565,31.905L28.565,30.84L30.631,30.423L31.8,30.423L31.8,38.08L33.71,38.08L33.71,39.063L28.733,39.063L28.733,38.08Z"/>
    <path d="M39.283,31.442L36.331,36.054L39.283,36.054L39.283,31.442M38.976,30.423L40.446,30.423L40.446,36.054L41.679,36.054L41.679,37.026L40.446,37.026L40.446,39.063L39.283,39.063L39.283,37.026L35.382,37.026L35.382,35.898L38.976,30.423Z"/>
    <path d="M29.103,15.147L31.013,15.147L31.013,8.556L28.936,8.973L28.936,7.908L31.001,7.491L32.17,7.491L32.17,15.147L34.08,15.147L34.08,16.131L29.103,16.131L29.103,15.147Z"/>
    <path d="M36.453,7.491L41.042,7.491L41.042,8.475L37.523,8.475L37.523,10.593C37.693,10.535 37.863,10.493 38.033,10.466C38.202,10.435 38.372,10.419 38.542,10.419C39.506,10.419 40.27,10.684 40.834,11.212C41.397,11.741 41.679,12.456 41.679,13.359C41.679,14.289 41.389,15.012 40.81,15.529C40.232,16.042 39.416,16.299 38.362,16.299C38,16.299 37.629,16.268 37.251,16.206C36.877,16.145 36.489,16.052 36.088,15.928L36.088,14.754C36.435,14.943 36.794,15.084 37.164,15.176C37.535,15.269 37.926,15.315 38.339,15.315C39.007,15.315 39.535,15.14 39.925,14.788C40.315,14.437 40.51,13.961 40.51,13.359C40.51,12.757 40.315,12.281 39.925,11.93C39.535,11.579 39.007,11.403 38.339,11.403C38.027,11.403 37.714,11.438 37.402,11.507C37.093,11.577 36.777,11.685 36.453,11.831L36.453,7.491Z"/>
    <circle cx="57.751" cy="332.863" r="3.5" style="fill:rgb(229,102,51);stroke:rgb(128,128,128);stroke-width:0.8px;stroke-linejoin:miter;"/>
    <circle cx="64.823" cy="309.93" r="3.5" style="fill:rgb(229,102,51);stroke:rgb(128,128,128);stroke-width:0.8px;stroke-linejoin:miter;"/>
    <circle cx="71.896" cy="309.93" r="3.5" style="fill:rgb(138,180,212);stroke:rgb(128,128,128);stroke-width:0.8px;stroke-linejoin:miter;"/>
    <circle cx="78.969" cy="286.998" r="3.5" style="fill:rgb(33,54,166);stroke:rgb(128,128,128);stroke-width:0.8px;stroke-linejoin:miter;"/>
    <circle cx="86.041" cy="309.93" r="3.5" style="fill:rgb(138,180,212);stroke:rgb(128,128,128);stroke-width:0.8px;stroke-linejoin:miter;"/>
    <circle cx="93.114" cy="264.065" r="3.5" style="fill:rgb(33,54,166);stroke:rgb(128,128,128);stroke-width:0.8px;stroke-linejoin:miter;"/>
    <circle cx="100.186" cy="309.93" r="3.5" style="fill:rgb(138,180,212);stroke:rgb(128,128,128);stroke-width:0.8px;stroke-linejoin:miter;"/>
    <circle cx="107.259" cy="264.065" r="3.5" style="fill:rgb(229,102,51);stroke:rgb(128,128,128);stroke-width:0.8px;stroke-linejoin:miter;"/>
    <circle cx="114.331" cy="286.998" r="3.5" style="fill:rgb(229,102,51);stroke:rgb(128,128,128);stroke-width:0.8px;stroke-linejoin:miter;"/>
    <circle cx="121.403" cy="264.065" r="3.5" style="fill:rgb(229,102,51);stroke:rgb(128,128,128);stroke-width:0.8px;stroke-linejoin:miter;"/>
    <circle cx="128.476" cy="309.93" r="3.5" style="fill:rgb(138,180,212);stroke:rgb(128,128,128);stroke-width:0.8px;stroke-linejoin:miter;"/>
    <circle cx="135.549" cy="218.202" r="3.5" style="fill:rgb(33,54,166);stroke:rgb(128,128,128);stroke-width:0.8px;stroke-linejoin:miter;"/>
    <circle cx="142.621" cy="309.93" r="3.5" style="fill:rgb(138,180,212);stroke:rgb(128,128,128);stroke-width:0.8px;stroke-linejoin:miter;"/>
    <circle cx="149.694" cy="264.065" r="3.5" style="fill:rgb(229,102,51);stroke:rgb(128,128,128);stroke-width:0.8px;stroke-linejoin:miter;"/>
    <circle cx="156.766" cy="264.065" r="3.5" style="fill:rgb(229,102,51);stroke:rgb(128,128,128);stroke-width:0.8px;stroke-linejoin:miter;"/>
    <circle cx="163.839" cy="241.134" r="3.5" style="fill:rgb(229,102,51);stroke:rgb(128,128,128);stroke-width:0.8px;stroke-linejoin:miter;"/>
    <circle cx="170.911" cy="309.93" r="3.5" style="fill:rgb(138,180,212);stroke:rgb(128,128,128);stroke-width:0.8px;stroke-linejoin:miter;"/>
    <circle cx="177.984" cy="218.202" r="3.5" style="fill:rgb(33,54,166);stroke:rgb(128,128,128);stroke-width:0.8px;stroke-linejoin:miter;"/>
    <circle cx="185.056" cy="309.93" r="3.5" style="fill:rgb(138,180,212);stroke:rgb(128,128,128);stroke-width:0.8px;stroke-linejoin:miter;"/>
    <circle cx="192.129" cy="218.202" r="3.5" style="fill:rgb(229,102,51);stroke:rgb(128,128,128);stroke-width:0.8px;stroke-linejoin:miter;"/>
    <circle cx="199.201" cy="264.065" r="3.5" style="fill:rgb(229,102,51);stroke:rgb(128,128,128);stroke-width:0.8px;stroke-linejoin:miter;"/>
    <circle cx="206.274" cy="264.065" r="3.5" style="fill:rgb(229,102,51);stroke:rgb(128,128,128);stroke-width:0.8px;stroke-linejoin:miter;"/>
    <circle cx="213.346" cy="309.93" r="3.5" style="fill:rgb(229,102,51);stroke:rgb(128,128,128);stroke-width:0.8px;stroke-linejoin:miter;"/>
    <circle cx="220.419" cy="172.337" r="3.5" style="fill:rgb(229,102,51);stroke:rgb(128,128,128);stroke-width:0.8px;stroke-linejoin:miter;"/>
    <circle cx="227.491" cy="286.998" r="3.5" style="fill:rgb(229,102,51);stroke:rgb(128,128,128);stroke-width:0.8px;stroke-linejoin:miter;"/>
    <circle cx="234.564" cy="264.065" r="3.5" style="fill:rgb(229,102,51);stroke:rgb(128,128,128);stroke-width:0.8px;stroke-linejoin:miter;"/>
    <circle cx="241.636" cy="264.065" r="3.5" style="fill:rgb(229,102,51);stroke:rgb(128,128,128);stroke-width:0.8px;stroke-linejoin:miter;"/>
    <circle cx="248.708" cy="218.202" r="3.5" style="fill:rgb(229,102,51);stroke:rgb(128,128,128);stroke-width:0.8px;stroke-linejoin:miter;"/>
    <circle cx="255.78" cy="309.93" r="3.5" style="fill:rgb(138,180,212);stroke:rgb(128,128,128);stroke-width:0.8px;stroke-linejoin:miter;"/>
    <circle cx="262.853" cy="172.337" r="3.5" style="fill:rgb(33,54,166);stroke:rgb(128,128,128);stroke-width:0.8px;stroke-linejoin:miter;"/>
    <circle cx="269.925" cy="309.93" r="3.5" style="fill:rgb(138,180,212);stroke:rgb(128,128,128);stroke-width:0.8px;stroke-linejoin:miter;"/>
    <circle cx="276.998" cy="218.202" r="3.5" style="fill:rgb(229,102,51);stroke:rgb(128,128,128);stroke-width:0.8px;stroke-linejoin:miter;"/>
    <circle cx="284.07" cy="264.065" r="3.5" style="fill:rgb(229,102,51);stroke:rgb(128,128,128);stroke-width:0.8px;stroke-linejoin:miter;"/>
    <circle cx="291.143" cy="264.065" r="3.5" style="fill:rgb(229,102,51);stroke:rgb(128,128,128);stroke-width:0.8px;stroke-linejoin:miter;"/>
    <circle cx="298.215" cy="264.065" r="3.5" style="fill:rgb(229,102,51);stroke:rgb(128,128,128);stroke-width:0.8px;stroke-linejoin:miter;"/>
    <circle cx="305.288" cy="149.405" r="3.5" style="fill:rgb(229,102,51);stroke:rgb(128,128,128);stroke-width:0.8px;stroke-linejoin:miter;"/>
    <circle cx="312.36" cy="309.93" r="3.5" style="fill:rgb(229,102,51);stroke:rgb(128,128,128);stroke-width:0.8px;stroke-linejoin:miter;"/>
    <circle cx="319.433" cy="264.065" r="3.5" style="fill:rgb(229,102,51);stroke:rgb(128,128,128);stroke-width:0.8px;stroke-linejoin:miter;"/>
    <circle cx="326.505" cy="264.065" r="3.5" style="fill:rgb(229,102,51);stroke:rgb(128,128,128);stroke-width:0.8px;stroke-linejoin:miter;"/>
    <circle cx="333.578" cy="172.337" r="3.5" style="fill:rgb(229,102,51);stroke:rgb(128,128,128);stroke-width:0.8px;stroke-linejoin:miter;"/>
    <circle cx="340.65" cy="309.93" r="3.5" style="fill:rgb(138,180,212);stroke:rgb(128,128,128);stroke-width:0.8px;stroke-linejoin:miter;"/>
    <circle cx="347.723" cy="172.337" r="3.5" style="fill:rgb(33,54,166);stroke:rgb(128,128,128);stroke-width:0.8px;stroke-linejoin:miter;"/>
    <circle cx="354.795" cy="309.93" r="3.5" style="fill:rgb(138,180,212);stroke:rgb(128,128,128);stroke-width:0.8px;stroke-linejoin:miter;"/>
    <circle cx="361.868" cy="218.202" r="3.5" style="fill:rgb(229,102,51);stroke:rgb(128,128,128);stroke-width:0.8px;stroke-linejoin:miter;"/>
    <circle cx="368.94" cy="218.202" r="3.5" style="fill:rgb(229,102,51);stroke:rgb(128,128,128);stroke-width:0.8px;stroke-linejoin:miter;"/>
    <circle cx="376.013" cy="264.065" r="3.5" style="fill:rgb(229,102,51);stroke:rgb(128,128,128);stroke-width:0.8px;stroke-linejoin:miter;"/>
    <circle cx="383.087" cy="309.93" r="3.5" style="fill:rgb(229,102,51);stroke:rgb(128,128,128);stroke-width:0.8px;stroke-linejoin:miter;"/>
    <circle cx="390.16" cy="126.472" r="3.5" style="fill:rgb(229,102,51);stroke:rgb(128,128,128);stroke-width:0.8px;stroke-linejoin:miter;"/>
    <circle cx="397.233" cy="286.998" r="3.5" style="fill:rgb(229,102,51);stroke:rgb(128,128,128);stroke-width:0.8px;stroke-linejoin:miter;"/>
    <circle cx="404.305" cy="218.202" r="3.5" style="fill:rgb(229,102,51);stroke:rgb(128,128,128);stroke-width:0.8px;stroke-linejoin:miter;"/>
    <circle cx="411.378" cy="264.065" r="3.5" style="fill:rgb(229,102,51);stroke:rgb(128,128,128);stroke-width:0.8px;stroke-linejoin:miter;"/>
    <circle cx="418.45" cy="218.202" r="3.5" style="fill:rgb(229,102,51);stroke:rgb(128,128,128);stroke-width:0.8px;stroke-linejoin:miter;"/>
    <circle cx="425.522" cy="309.93" r="3.5" style="fill:rgb(229,102,51);stroke:rgb(128,128,128);stroke-width:0.8px;stroke-linejoin:miter;"/>
    <circle cx="432.595" cy="172.337" r="3.5" style="fill:rgb(229,102,51);stroke:rgb(128,128,128);stroke-width:0.8px;stroke-linejoin:miter;"/>
    <circle cx="439.668" cy="264.065" r="3.5" style="fill:rgb(229,102,51);stroke:rgb(128,128,128);stroke-width:0.8px;stroke-linejoin:miter;"/>
    <circle cx="446.74" cy="172.337" r="3.5" style="fill:rgb(229,102,51);stroke:rgb(128,128,128);stroke-width:0.8px;stroke-linejoin:miter;"/>
    <circle cx="453.813" cy="264.065" r="3.5" style="fill:rgb(229,102,51);stroke:rgb(128,128,128);stroke-width:0.8px;stroke-linejoin:miter;"/>
    <circle cx="460.885" cy="264.065" r="3.5" style="fill:rgb(229,102,51);stroke:rgb(128,128,128);stroke-width:0.8px;stroke-linejoin:miter;"/>
    <circle cx="467.958" cy="309.93" r="3.5" style="fill:rgb(138,180,212);stroke:rgb(128,128,128);stroke-width:0.8px;stroke-linejoin:miter;"/>
    <circle cx="475.03" cy="80.608" r="3.5" style="fill:rgb(33,54,166);stroke:rgb(128,128,128);stroke-width:0.8px;stroke-linejoin:miter;"/>
    <circle cx="482.103" cy="309.93" r="3.5" style="fill:rgb(138,180,212);stroke:rgb(128,128,128);stroke-width:0.8px;stroke-linejoin:miter;"/>
    <circle cx="489.175" cy="264.065" r="3.5" style="fill:rgb(229,102,51);stroke:rgb(128,128,128);stroke-width:0.8px;stroke-linejoin:miter;"/>
    <circle cx="496.248" cy="218.202" r="3.5" style="fill:rgb(229,102,51);stroke:rgb(128,128,128);stroke-width:0.8px;stroke-linejoin:miter;"/>
    <circle cx="503.32" cy="195.269" r="3.5" style="fill:rgb(229,102,51);stroke:rgb(128,128,128);stroke-width:0.8px;stroke-linejoin:miter;"/>
    <circle cx="510.392" cy="264.065" r="3.5" style="fill:rgb(229,102,51);stroke:rgb(128,128,128);stroke-width:0.8px;stroke-linejoin:miter;"/>
    <circle cx="517.465" cy="172.337" r="3.5" style="fill:rgb(229,102,51);stroke:rgb(128,128,128);stroke-width:0.8px;stroke-linejoin:miter;"/>
    <circle cx="524.538" cy="309.93" r="3.5" style="fill:rgb(229,102,51);stroke:rgb(128,128,128);stroke-width:0.8px;stroke-linejoin:miter;"/>
    <circle cx="531.61" cy="218.202" r="3.5" style="fill:rgb(229,102,51);stroke:rgb(128,128,128);stroke-width:0.8px;stroke-linejoin:miter;"/>
    <circle cx="538.683" cy="264.065" r="3.5" style="fill:rgb(229,102,51);stroke:rgb(128,128,128);stroke-width:0.8px;stroke-linejoin:miter;"/>
    <circle cx="545.755" cy="172.337" r="3.5" style="fill:rgb(229,102,51);stroke:rgb(128,128,128);stroke-width:0.8px;stroke-linejoin:miter;"/>
    <circle cx="552.828" cy="309.93" r="3.5" style="fill:rgb(138,180,212);stroke:rgb(128,128,128);stroke-width:0.8px;stroke-linejoin:miter;"/>
    <circle cx="559.9" cy="80.608" r="3.5" style="fill:rgb(33,54,166);stroke:rgb(128,128,128);stroke-width:0.8px;stroke-linejoin:miter;"/>
    <circle cx="566.973" cy="309.93" r="3.5" style="fill:rgb(138,180,212);stroke:rgb(128,128,128);stroke-width:0.8px;stroke-linejoin:miter;"/>
    <circle cx="574.045" cy="264.065" r="3.5" style="fill:rgb(229,102,51);stroke:rgb(128,128,128);stroke-width:0.8px;stroke-linejoin:miter;"/>
    <circle cx="581.117" cy="218.202" r="3.5" style="fill:rgb(229,102,51);stroke:rgb(128,128,128);stroke-width:0.8px;stroke-linejoin:miter;"/>
    <g transform="matrix(1,0,0,1,-2,2)">
        <text x="71.452px" y="320.251px" style="font-family:'ArialMT', 'Arial', sans-serif;font-size:9px;">3</text>
    </g>
    <g transform="matrix(1,0,0,1,12.1013,2)">
        <text x="71.452px" y="320.251px" style="font-family:'ArialMT', 'Arial', sans-serif;font-size:9px;">5</text>
    </g>
    <g transform="matrix(1,0,0,1,5.17386,-39.0406)">
        <text x="71.452px" y="320.251px" style="font-family:'ArialMT', 'Arial', sans-serif;font-size:9px;">4</text>
    </g>
    <g transform="matrix(1,0,0,1,19.3189,-61.8906)">
        <text x="71.452px" y="320.251px" style="font-family:'ArialMT', 'Arial', sans-serif;font-size:9px;">6</text>
    </g>
    <g transform="matrix(1,0,0,1,61.7539,-107.809)">
        <text x="68.95px" y="320.251px" style="font-family:'ArialMT', 'Arial', sans-serif;font-size:9px;">12</text>
    </g>
    <g transform="matrix(1,0,0,1,104.189,-107.809)">
        <text x="68.95px" y="320.251px" style="font-family:'ArialMT', 'Arial', sans-serif;font-size:9px;">18</text>
    </g>
    <g transform="matrix(1,0,0,1,189.058,-153.39)">
        <text x="68.95px" y="320.251px" style="font-family:'ArialMT', 'Arial', sans-serif;font-size:9px;">30</text>
    </g>
    <g transform="matrix(1,0,0,1,273.928,-153.39)">
        <text x="68.95px" y="320.251px" style="font-family:'ArialMT', 'Arial', sans-serif;font-size:9px;">42</text>
    </g>
    <g transform="matrix(1,0,0,1,400.468,-245.631)">
        <text x="68.95px" y="320.251px" style="font-family:'ArialMT', 'Arial', sans-serif;font-size:9px;">60</text>
    </g>
    <g transform="matrix(1,0,0,1,486.105,-245.631)">
        <text x="68.95px" y="320.251px" style="font-family:'ArialMT', 'Arial', sans-serif;font-size:9px;">72</text>
    </g>
    <g transform="matrix(1,0,0,1,26.2463,2)">
        <text x="71.452px" y="320.251px" style="font-family:'ArialMT', 'Arial', sans-serif;font-size:9px;">7</text>
    </g>
    <g transform="matrix(1,0,0,1,54.5363,2)">
        <text x="69.284px" y="320.251px" style="font-family:'ArialMT', 'Arial', sans-serif;font-size:9px;">1<tspan x="73.621px " y="320.251px ">1</tspan></text>
    </g>
    <g transform="matrix(1,0,0,1,68.6813,2)">
        <text x="68.95px" y="320.251px" style="font-family:'ArialMT', 'Arial', sans-serif;font-size:9px;">13</text>
    </g>
    <g transform="matrix(1,0,0,1,96.9713,2)">
        <text x="68.95px" y="320.251px" style="font-family:'ArialMT', 'Arial', sans-serif;font-size:9px;">17</text>
    </g>
    <g transform="matrix(1,0,0,1,111.073,2)">
        <text x="68.95px" y="320.251px" style="font-family:'ArialMT', 'Arial', sans-serif;font-size:9px;">19</text>
    </g>
    <g transform="matrix(1,0,0,1,182.218,2)">
        <text x="68.95px" y="320.251px" style="font-family:'ArialMT', 'Arial', sans-serif;font-size:9px;">29</text>
    </g>
    <g transform="matrix(1,0,0,1,195.985,2)">
        <text x="68.95px" y="320.251px" style="font-family:'ArialMT', 'Arial', sans-serif;font-size:9px;">31</text>
    </g>
    <g transform="matrix(1,0,0,1,266.754,2)">
        <text x="68.95px" y="320.251px" style="font-family:'ArialMT', 'Arial', sans-serif;font-size:9px;">41</text>
    </g>
    <g transform="matrix(1,0,0,1,280.899,2)">
        <text x="68.95px" y="320.251px" style="font-family:'ArialMT', 'Arial', sans-serif;font-size:9px;">43</text>
    </g>
    <g transform="matrix(1,0,0,1,394.355,2)">
        <text x="68.95px" y="320.251px" style="font-family:'ArialMT', 'Arial', sans-serif;font-size:9px;">59</text>
    </g>
    <g transform="matrix(1,0,0,1,407.825,2)">
        <text x="68.95px" y="320.251px" style="font-family:'ArialMT', 'Arial', sans-serif;font-size:9px;">61</text>
    </g>
    <g transform="matrix(1,0,0,1,478.932,2)">
        <text x="68.95px" y="320.251px" style="font-family:'ArialMT', 'Arial', sans-serif;font-size:9px;">71</text>
    </g>
    <g transform="matrix(1,0,0,1,493.033,2)">
        <text x="68.95px" y="320.251px" style="font-family:'ArialMT', 'Arial', sans-serif;font-size:9px;">73</text>
    </g>
</svg>
